<svg width="34" height="35" viewBox="0 0 34 35" fill="none" xmlns="http://www.w3.org/2000/svg">
<path d="M31.5426 34.9059H24.9201C24.1531 34.9059 23.4219 34.5525 22.9137 33.9389L17.0863 26.8732L11.2588 33.9389C10.7506 34.5541 10.0195 34.9076 9.25244 34.9076H2.52237C1.71638 34.9076 1.01173 34.4208 0.681228 33.6355C0.350727 32.8519 0.478562 31.9649 1.01329 31.3214L1.93932 30.2076L9.6188 20.431C10.0662 19.8624 10.8613 19.7874 11.3945 20.2642C11.9276 20.7411 11.9978 21.5897 11.5504 22.1599L3.85997 31.9499C3.85217 31.9599 3.84438 31.9699 3.83658 31.9783L3.64015 32.2133H9.25244C9.29609 32.2133 9.33818 32.1933 9.3678 32.1583L15.5725 24.6374C15.956 24.1739 16.5079 23.9072 17.0863 23.9072C17.6646 23.9072 18.2181 24.1739 18.6 24.6374L24.8047 32.16C24.8343 32.195 24.8764 32.215 24.9201 32.215H30.5105L23.3081 22.4133C21.7912 20.3759 19.5229 19.2055 17.0863 19.2055C13.8873 19.2055 10.9112 17.6717 8.92194 14.9958L1.03823 4.40379C0.551834 3.75024 0.461413 2.87827 0.801269 2.12634C1.14112 1.37442 1.83798 0.907593 2.61903 0.907593H9.25244C10.007 0.907593 10.7272 1.25438 11.2261 1.85958L17.0722 8.94702L22.948 1.85792C23.4453 1.25438 24.1655 0.907593 24.9201 0.907593H31.4942C32.2831 0.910927 32.9831 1.38442 33.3182 2.14635C33.655 2.90828 33.5521 3.78691 33.0501 4.43547L24.4072 15.6243C23.9644 16.1978 23.1709 16.2795 22.6331 15.806C22.0968 15.3325 22.0204 14.4856 22.4631 13.9121L30.4295 3.60018H24.9201C24.8889 3.59852 24.8577 3.61352 24.8374 3.63853L18.5829 11.1845C18.1994 11.6463 17.649 11.9114 17.0722 11.9114H17.0691C16.4907 11.9114 15.9389 11.6446 15.5569 11.1811L9.33506 3.63853C9.3148 3.61352 9.28362 3.59851 9.25244 3.59851H3.6573L10.894 13.3235C12.4031 15.3525 14.6589 16.5163 17.0847 16.5163C20.2962 16.5163 23.2847 18.0568 25.2833 20.7427C25.2833 20.7444 25.2864 20.7461 25.288 20.7494L33.1296 31.4214C33.6098 32.075 33.6971 32.9469 33.3572 33.6938C33.0174 34.4424 32.3205 34.9059 31.5426 34.9059Z" fill="url(#paint0_linear_318_926)"/>
<defs>
<linearGradient id="paint0_linear_318_926" x1="0.500388" y1="17.9068" x2="33.563" y2="17.9068" gradientUnits="userSpaceOnUse">
<stop stop-color="#199B45"/>
<stop offset="1" stop-color="#E0E225"/>
</linearGradient>
</defs>
</svg>
