<svg width="78" height="21" viewBox="0 0 78 21" fill="none" xmlns="http://www.w3.org/2000/svg">
<path d="M0.87439 15.4503V0.6069H10.2531V3.4062H3.78966V12.651H10.3919V15.4503H0.87439ZM2.26187 9.2382V6.52393H9.30062V9.2382H2.26187Z" fill="white"/>
<path d="M11.7591 15.4503L15.9418 9.32322L17.4883 11.2956L15.0688 15.452H11.7576L11.7591 15.4503ZM19.4324 15.4503L16.8351 11.4856L16.0416 10.2986L11.7981 4.23481H15.2091L17.7471 8.0728L18.6201 9.32322L22.8028 15.4503H19.4324ZM18.5001 10.4036L16.9926 8.43125L19.2328 4.23314H22.5441L18.5001 10.4036Z" fill="white"/>
<path d="M24.2885 20.1153V4.23314H27.0043L27.0838 6.75568L26.5678 6.56395C26.6597 6.11212 26.8873 5.69531 27.2521 5.31352C27.6154 4.93172 28.0675 4.62161 28.61 4.37986C29.1525 4.13978 29.72 4.01974 30.3155 4.01974C31.2275 4.01974 32.0397 4.27149 32.7537 4.77166C33.4678 5.2735 34.029 5.95874 34.439 6.82904C34.849 7.69767 35.0532 8.69801 35.0532 9.83007C35.0532 10.9621 34.8474 11.9441 34.439 12.8194C34.029 13.6964 33.4678 14.385 32.7537 14.8868C32.0397 15.3886 31.2275 15.6387 30.3155 15.6387C29.7075 15.6387 29.1291 15.5153 28.5804 15.2669C28.0316 15.0202 27.5686 14.6917 27.1929 14.2816C26.8156 13.8715 26.5755 13.433 26.4695 12.9678L27.1243 12.671V20.1136H24.2885V20.1153ZM29.681 13.0545C30.197 13.0545 30.6523 12.9211 31.0498 12.651C31.4458 12.3826 31.7576 12.0041 31.9821 11.5173C32.2065 11.0305 32.3188 10.467 32.3188 9.83174C32.3188 9.19652 32.2065 8.63799 31.9821 8.15616C31.7576 7.67599 31.4504 7.30087 31.0607 7.03244C30.671 6.76401 30.2111 6.62897 29.6826 6.62897C29.1541 6.62897 28.6911 6.75901 28.2951 7.02077C27.8991 7.28252 27.5873 7.65765 27.3628 8.14449C27.1383 8.63132 27.0261 9.19485 27.0261 9.83007C27.0261 10.4653 27.1383 11.0288 27.3628 11.5156C27.5873 12.0025 27.8976 12.3809 28.2951 12.6494C28.6911 12.9178 29.1541 13.0528 29.6826 13.0528L29.681 13.0545Z" fill="white"/>
<path d="M41.8955 15.6621C40.759 15.6621 39.7644 15.4153 38.9117 14.9201C38.0589 14.425 37.3979 13.7464 36.9287 12.8844C36.4594 12.0225 36.224 11.0321 36.224 9.9151C36.224 9.03813 36.3565 8.23952 36.62 7.51927C36.885 6.79902 37.2545 6.17215 37.73 5.64196C38.2055 5.11178 38.7714 4.70164 39.4246 4.41154C40.0793 4.12144 40.7887 3.97639 41.5557 3.97639C42.2697 3.97639 42.9307 4.11811 43.5387 4.39987C44.1467 4.6833 44.6721 5.0751 45.1148 5.57694C45.5576 6.07878 45.8974 6.67231 46.1359 7.35755C46.3744 8.04278 46.4789 8.78137 46.4524 9.57331L46.4321 10.507H38.0059L37.5507 8.663H44.1139L43.7975 9.0448V8.57797C43.771 8.19617 43.6556 7.85439 43.4498 7.54928C43.244 7.24585 42.9837 7.00576 42.6672 6.82904C42.3507 6.65231 41.9937 6.56395 41.5962 6.56395C41.0147 6.56395 40.5221 6.68399 40.1199 6.92407C39.7161 7.16415 39.409 7.5176 39.1985 7.98443C38.9865 8.45126 38.8805 9.01645 38.8805 9.68002C38.8805 10.3436 39.0161 10.9454 39.2874 11.4406C39.5586 11.9358 39.9421 12.3209 40.4379 12.596C40.9337 12.8711 41.5183 13.0095 42.1933 13.0095C42.6563 13.0095 43.0788 12.9328 43.4623 12.7761C43.8458 12.621 44.2558 12.3526 44.6908 11.9708L46.0393 13.9848C45.6558 14.3533 45.2333 14.6601 44.7703 14.9068C44.3073 15.1536 43.8318 15.342 43.3423 15.4687C42.8527 15.5954 42.371 15.6587 41.8955 15.6587V15.6621Z" fill="white"/>
<path d="M53.2557 15.6621C52.1193 15.6621 51.1246 15.4153 50.2719 14.9201C49.4191 14.425 48.7581 13.7464 48.2889 12.8844C47.8196 12.0225 47.5842 11.0321 47.5842 9.9151C47.5842 9.03813 47.7167 8.23952 47.9802 7.51927C48.2452 6.79902 48.6147 6.17215 49.0902 5.64196C49.5657 5.11178 50.1316 4.70164 50.7848 4.41154C51.4395 4.12144 52.1489 3.97639 52.9159 3.97639C53.6299 3.97639 54.2909 4.11811 54.8989 4.39987C55.5069 4.6833 56.0323 5.0751 56.475 5.57694C56.9178 6.07878 57.2576 6.67231 57.4961 7.35755C57.7347 8.04278 57.8391 8.78137 57.8126 9.57331L57.7923 10.507H49.3661L48.9109 8.663H55.4742L55.1577 9.0448V8.57797C55.1312 8.19617 55.0158 7.85439 54.81 7.54928C54.6042 7.24585 54.3439 7.00576 54.0274 6.82904C53.711 6.65231 53.354 6.56395 52.9564 6.56395C52.3749 6.56395 51.8823 6.68399 51.4801 6.92407C51.0763 7.16415 50.7692 7.5176 50.5587 7.98443C50.3467 8.45126 50.2407 9.01645 50.2407 9.68002C50.2407 10.3436 50.3763 10.9454 50.6476 11.4406C50.9188 11.9358 51.3023 12.3209 51.7981 12.596C52.2939 12.8711 52.8785 13.0095 53.5535 13.0095C54.0165 13.0095 54.439 12.9328 54.8225 12.7761C55.206 12.621 55.616 12.3526 56.051 11.9708L57.3995 13.9848C57.016 14.3533 56.5935 14.6601 56.1305 14.9068C55.6675 15.1536 55.192 15.342 54.7025 15.4687C54.2129 15.5954 53.7312 15.6587 53.2557 15.6587V15.6621Z" fill="white"/>
<path d="M59.6397 15.4503V4.23314H62.3554L62.4552 7.83771L61.9797 7.0958C62.1387 6.5156 62.396 5.99041 62.753 5.51525C63.11 5.04176 63.5293 4.66996 64.0126 4.40154C64.4944 4.13311 65.001 3.99806 65.5295 3.99806C65.754 3.99806 65.9723 4.01974 66.1843 4.06142C66.3947 4.1031 66.574 4.15312 66.719 4.20981L65.966 7.51761C65.821 7.43258 65.6324 7.35922 65.4017 7.29586C65.1709 7.23251 64.9355 7.20083 64.6986 7.20083C64.3821 7.20083 64.0875 7.26085 63.8162 7.38089C63.5449 7.50093 63.3111 7.67099 63.1131 7.8894C62.9151 8.10947 62.7592 8.36623 62.647 8.663C62.5347 8.95977 62.4786 9.28488 62.4786 9.63834V15.4487H59.6428L59.6397 15.4503Z" fill="white"/>
<path d="M71.5565 15.6621C70.6834 15.6621 69.8977 15.407 69.1977 14.8985C68.4962 14.39 67.9412 13.6964 67.5328 12.8211C67.1228 11.9441 66.9185 10.9404 66.9185 9.81006C66.9185 8.67967 67.1274 7.67599 67.5437 6.79903C67.9599 5.92206 68.5258 5.23683 69.2383 4.74166C69.9523 4.24649 70.7645 3.99973 71.6765 3.99973C72.1925 3.99973 72.6649 4.08143 73.0936 4.24315C73.5223 4.40654 73.8996 4.62828 74.2239 4.91171C74.5481 5.19514 74.821 5.52026 75.047 5.88705C75.2715 6.25551 75.4305 6.65064 75.5225 7.07412L74.927 6.96742V4.23148H77.7222V15.4487H74.8864V12.7561L75.5209 12.6927C75.4149 13.0878 75.2434 13.463 75.0049 13.8164C74.7664 14.1699 74.4733 14.485 74.1225 14.7601C73.7718 15.0352 73.3789 15.2553 72.9424 15.417C72.5059 15.5787 72.0429 15.6604 71.5549 15.6604L71.5565 15.6621ZM72.3297 13.0545C72.8582 13.0545 73.3212 12.9211 73.7172 12.651C74.1132 12.3826 74.4203 12.0041 74.6386 11.5173C74.8568 11.0305 74.9659 10.4603 74.9659 9.81006C74.9659 9.15984 74.8568 8.61631 74.6386 8.13448C74.4203 7.65432 74.1132 7.27586 73.7172 7.00076C73.3212 6.72567 72.8582 6.58729 72.3297 6.58729C71.8012 6.58729 71.3616 6.72567 70.9719 7.00076C70.5821 7.27586 70.275 7.65432 70.0505 8.13448C69.826 8.61465 69.7138 9.17317 69.7138 9.81006C69.7138 10.4469 69.826 11.0288 70.0505 11.5173C70.275 12.0041 70.5821 12.3826 70.9719 12.651C71.3616 12.9195 71.8153 13.0545 72.3297 13.0545Z" fill="white"/>
</svg>
