<svg width="125" height="125" viewBox="0 0 125 125" fill="none" xmlns="http://www.w3.org/2000/svg">
<g filter="url(#filter0_b_731_11243)">
<path d="M88.5948 2H36.2394C15.7682 2 2 16.3721 2 37.749V87.0851C2 108.402 15.7682 122.774 36.2394 122.774H88.5948C109.066 122.774 122.774 108.402 122.774 87.0851V37.749C122.774 16.3721 109.066 2 88.5948 2Z" fill="#40C391" fill-opacity="0.62"/>
<path d="M88.5948 1.26057H36.2394C25.8243 1.26057 17.064 4.9207 10.909 11.3467C4.75664 17.7699 1.26057 26.9003 1.26057 37.749V87.0851C1.26057 97.9042 4.75698 107.019 10.9093 113.435C17.0642 119.853 25.8243 123.513 36.2394 123.513H88.5948C99.01 123.513 107.755 119.853 113.895 113.434C120.032 107.018 123.513 97.9033 123.513 87.0851V37.749C123.513 26.9012 120.033 17.7709 113.896 11.3474C107.756 4.92082 99.01 1.26057 88.5948 1.26057Z" stroke="url(#paint0_linear_731_11243)" stroke-width="1.47886" stroke-linecap="round" stroke-linejoin="round"/>
</g>
<g filter="url(#filter1_bd_731_11243)">
<g filter="url(#filter2_b_731_11243)">
<mask id="path-3-inside-1_731_11243" fill="white">
<path fill-rule="evenodd" clip-rule="evenodd" d="M42.2 44.7972C42.2 55.7714 51.1803 64.566 62.3864 64.566C73.5885 64.566 82.5729 55.7714 82.5729 44.7972C82.5729 33.8229 73.5885 25.0283 62.3864 25.0283C51.1803 25.0283 42.2 33.8229 42.2 44.7972ZM92.8945 86.949C92.8945 76.7901 78.8412 74.2484 62.3874 74.2484C45.8442 74.2484 31.8802 76.8776 31.8802 87.0444C31.8802 97.2033 45.9335 99.745 62.3874 99.745C78.9305 99.745 92.8945 97.1158 92.8945 86.949Z"/>
</mask>
<path fill-rule="evenodd" clip-rule="evenodd" d="M42.2 44.7972C42.2 55.7714 51.1803 64.566 62.3864 64.566C73.5885 64.566 82.5729 55.7714 82.5729 44.7972C82.5729 33.8229 73.5885 25.0283 62.3864 25.0283C51.1803 25.0283 42.2 33.8229 42.2 44.7972ZM92.8945 86.949C92.8945 76.7901 78.8412 74.2484 62.3874 74.2484C45.8442 74.2484 31.8802 76.8776 31.8802 87.0444C31.8802 97.2033 45.9335 99.745 62.3874 99.745C78.9305 99.745 92.8945 97.1158 92.8945 86.949Z" fill="url(#paint1_linear_731_11243)"/>
<path d="M62.3864 64.8618C51.0228 64.8618 41.9042 55.9406 41.9042 44.7972H42.4957C42.4957 55.6023 51.3378 64.2702 62.3864 64.2702V64.8618ZM82.8687 44.7972C82.8687 55.9406 73.746 64.8618 62.3864 64.8618V64.2702C73.4311 64.2702 82.2772 55.6023 82.2772 44.7972H82.8687ZM62.3864 24.7325C73.746 24.7325 82.8687 33.6537 82.8687 44.7972H82.2772C82.2772 33.9921 73.4311 25.3241 62.3864 25.3241V24.7325ZM41.9042 44.7972C41.9042 33.6537 51.0228 24.7325 62.3864 24.7325V25.3241C51.3378 25.3241 42.4957 33.992 42.4957 44.7972H41.9042ZM62.3874 73.9526C70.6207 73.9526 78.2884 74.5874 83.9068 76.5092C86.7178 77.4707 89.0373 78.7615 90.6566 80.4756C92.2825 82.1968 93.1903 84.333 93.1903 86.949H92.5988C92.5988 84.4855 91.7498 82.4944 90.2266 80.8818C88.6967 79.2622 86.4745 78.0127 83.7154 77.069C78.1937 75.1802 70.6078 74.5442 62.3874 74.5442V73.9526ZM31.5844 87.0444C31.5844 84.4271 32.4861 82.2844 34.1045 80.5539C35.7165 78.8302 38.0275 77.5276 40.8331 76.5544C46.4408 74.6093 54.1088 73.9526 62.3874 73.9526V74.5442C54.1227 74.5442 46.5371 75.202 41.027 77.1133C38.2737 78.0683 36.0598 79.3292 34.5366 80.9579C33.0198 82.5798 32.1759 84.5783 32.1759 87.0444H31.5844ZM62.3874 100.041C54.154 100.041 46.4863 99.406 40.8679 97.4841C38.0569 96.5226 35.7374 95.2319 34.1181 93.5178C32.4922 91.7965 31.5844 89.6604 31.5844 87.0444H32.1759C32.1759 89.5079 33.0249 91.499 34.5481 93.1116C36.078 94.7311 38.3002 95.9807 41.0593 96.9244C46.581 98.8132 54.1669 99.4492 62.3874 99.4492V100.041ZM93.1903 86.949C93.1903 89.5663 92.2886 91.7089 90.6702 93.4395C89.0582 95.1631 86.7472 96.4658 83.9416 97.439C78.3339 99.3841 70.6659 100.041 62.3874 100.041V99.4492C70.652 99.4492 78.2376 98.7913 83.7477 96.8801C86.501 95.9251 88.7149 94.6642 90.2381 93.0354C91.7549 91.4136 92.5988 89.4151 92.5988 86.949H93.1903Z" fill="url(#paint2_linear_731_11243)" mask="url(#path-3-inside-1_731_11243)"/>
</g>
<g filter="url(#filter3_f_731_11243)">
<mask id="path-5-inside-2_731_11243" fill="white">
<path d="M69.0143 80.7637C79.0602 80.7637 87.6406 82.4517 87.6406 89.1985C87.6406 95.9506 79.1148 97.6967 69.0143 97.6967C58.9683 97.6967 50.3879 96.0087 50.3879 89.2619C50.3879 82.5098 58.9137 80.7637 69.0143 80.7637Z"/>
</mask>
<path d="M69.0143 80.7637C79.0602 80.7637 87.6406 82.4517 87.6406 89.1985C87.6406 95.9506 79.1148 97.6967 69.0143 97.6967C58.9683 97.6967 50.3879 96.0087 50.3879 89.2619C50.3879 82.5098 58.9137 80.7637 69.0143 80.7637Z" fill="url(#paint3_linear_731_11243)"/>
<path d="M69.0143 80.4679C74.0446 80.4679 78.7453 80.8892 82.1978 82.1738C83.9267 82.8171 85.3619 83.6837 86.3663 84.8403C87.3759 86.0028 87.9364 87.4428 87.9364 89.1985H87.3449C87.3449 87.5808 86.8328 86.2797 85.9197 85.2282C85.0013 84.1707 83.6635 83.3503 81.9915 82.7282C78.6424 81.4821 74.0299 81.0594 69.0143 81.0594V80.4679ZM87.9364 89.1985C87.9364 90.9549 87.3797 92.3991 86.3749 93.5677C85.3751 94.7306 83.9453 95.6053 82.2196 96.2564C78.7734 97.5566 74.0724 97.9925 69.0143 97.9925V97.401C74.0567 97.401 78.6688 96.9638 82.0107 95.7029C83.6791 95.0735 85.012 94.2456 85.9264 93.1821C86.8358 92.1243 87.3449 90.8182 87.3449 89.1985H87.9364ZM69.0143 97.9925C63.9839 97.9925 59.2832 97.5712 55.8307 96.2866C54.1018 95.6433 52.6667 94.7767 51.6622 93.6201C50.6526 92.4576 50.0921 91.0176 50.0921 89.2619H50.6837C50.6837 90.8796 51.1957 92.1807 52.1089 93.2322C53.0272 94.2897 54.365 95.1101 56.037 95.7322C59.3861 96.9783 63.9986 97.401 69.0143 97.401V97.9925ZM50.0921 89.2619C50.0921 87.5055 50.6488 86.0613 51.6536 84.8927C52.6534 83.7298 54.0833 82.8551 55.809 82.204C59.2551 80.9038 63.9562 80.4679 69.0143 80.4679V81.0594C63.9718 81.0594 59.3597 81.4966 56.0178 82.7575C54.3495 83.3869 53.0166 84.2148 52.1021 85.2783C51.1927 86.3361 50.6837 87.6422 50.6837 89.2619H50.0921Z" fill="url(#paint4_linear_731_11243)" mask="url(#path-5-inside-2_731_11243)"/>
</g>
<g filter="url(#filter4_f_731_11243)">
<mask id="path-7-inside-3_731_11243" fill="white">
<path d="M67.3206 54.8001C61.6806 54.8001 57.1608 50.2803 57.1608 44.6403C57.1608 39.0003 61.6806 34.4805 67.3206 34.4805C72.9586 34.4805 77.4805 39.0003 77.4805 44.6403C77.4805 50.2803 72.9586 54.8001 67.3206 54.8001Z"/>
</mask>
<path d="M67.3206 54.8001C61.6806 54.8001 57.1608 50.2803 57.1608 44.6403C57.1608 39.0003 61.6806 34.4805 67.3206 34.4805C72.9586 34.4805 77.4805 39.0003 77.4805 44.6403C77.4805 50.2803 72.9586 54.8001 67.3206 54.8001Z" fill="url(#paint5_linear_731_11243)"/>
<path d="M67.3206 55.0959C61.5172 55.0959 56.865 50.4437 56.865 44.6403H57.4566C57.4566 50.117 61.8439 54.5044 67.3206 54.5044V55.0959ZM56.865 44.6403C56.865 38.8369 61.5172 34.1847 67.3206 34.1847V34.7762C61.8439 34.7762 57.4566 39.1636 57.4566 44.6403H56.865ZM67.3206 34.1847C73.1219 34.1847 77.7762 38.8369 77.7762 44.6403H77.1847C77.1847 39.1637 72.7953 34.7762 67.3206 34.7762V34.1847ZM77.7762 44.6403C77.7762 50.4437 73.1219 55.0959 67.3206 55.0959V54.5044C72.7953 54.5044 77.1847 50.117 77.1847 44.6403H77.7762Z" fill="url(#paint6_linear_731_11243)" mask="url(#path-7-inside-3_731_11243)"/>
</g>
</g>
<defs>
<filter id="filter0_b_731_11243" x="-34.9732" y="-34.9712" width="194.72" height="194.717" filterUnits="userSpaceOnUse" color-interpolation-filters="sRGB">
<feFlood flood-opacity="0" result="BackgroundImageFix"/>
<feGaussianBlur in="BackgroundImageFix" stdDeviation="17.7463"/>
<feComposite in2="SourceAlpha" operator="in" result="effect1_backgroundBlur_731_11243"/>
<feBlend mode="normal" in="SourceGraphic" in2="effect1_backgroundBlur_731_11243" result="shape"/>
</filter>
<filter id="filter1_bd_731_11243" x="9.69598" y="2.84539" width="105.381" height="119.083" filterUnits="userSpaceOnUse" color-interpolation-filters="sRGB">
<feFlood flood-opacity="0" result="BackgroundImageFix"/>
<feGaussianBlur in="BackgroundImageFix" stdDeviation="11.0915"/>
<feComposite in2="SourceAlpha" operator="in" result="effect1_backgroundBlur_731_11243"/>
<feColorMatrix in="SourceAlpha" type="matrix" values="0 0 0 0 0 0 0 0 0 0 0 0 0 0 0 0 0 0 127 0" result="hardAlpha"/>
<feOffset dx="7.39431" dy="7.39431"/>
<feGaussianBlur stdDeviation="7.39431"/>
<feColorMatrix type="matrix" values="0 0 0 0 0.454902 0 0 0 0 0.870588 0 0 0 0 0.376471 0 0 0 0.5 0"/>
<feBlend mode="normal" in2="effect1_backgroundBlur_731_11243" result="effect2_dropShadow_731_11243"/>
<feBlend mode="normal" in="SourceGraphic" in2="effect2_dropShadow_731_11243" result="shape"/>
</filter>
<filter id="filter2_b_731_11243" x="12.6537" y="5.80312" width="99.466" height="113.167" filterUnits="userSpaceOnUse" color-interpolation-filters="sRGB">
<feFlood flood-opacity="0" result="BackgroundImageFix"/>
<feGaussianBlur in="BackgroundImageFix" stdDeviation="9.6126"/>
<feComposite in2="SourceAlpha" operator="in" result="effect1_backgroundBlur_731_11243"/>
<feBlend mode="normal" in="SourceGraphic" in2="effect1_backgroundBlur_731_11243" result="shape"/>
</filter>
<filter id="filter3_f_731_11243" x="31.1615" y="61.5385" width="75.7043" height="55.383" filterUnits="userSpaceOnUse" color-interpolation-filters="sRGB">
<feFlood flood-opacity="0" result="BackgroundImageFix"/>
<feBlend mode="normal" in="SourceGraphic" in2="BackgroundImageFix" result="shape"/>
<feGaussianBlur stdDeviation="9.6126" result="effect1_foregroundBlur_731_11243"/>
</filter>
<filter id="filter4_f_731_11243" x="34.9772" y="12.2975" width="64.6862" height="64.6852" filterUnits="userSpaceOnUse" color-interpolation-filters="sRGB">
<feFlood flood-opacity="0" result="BackgroundImageFix"/>
<feBlend mode="normal" in="SourceGraphic" in2="BackgroundImageFix" result="shape"/>
<feGaussianBlur stdDeviation="11.0915" result="effect1_foregroundBlur_731_11243"/>
</filter>
<linearGradient id="paint0_linear_731_11243" x1="114.211" y1="23.8093" x2="-20.3195" y2="28.1956" gradientUnits="userSpaceOnUse">
<stop stop-color="white"/>
<stop offset="1" stop-color="white" stop-opacity="0.2"/>
</linearGradient>
<linearGradient id="paint1_linear_731_11243" x1="36.206" y1="38.5207" x2="104.194" y2="40.3309" gradientUnits="userSpaceOnUse">
<stop stop-color="white"/>
<stop offset="1" stop-color="white" stop-opacity="0.2"/>
</linearGradient>
<linearGradient id="paint2_linear_731_11243" x1="36.206" y1="38.5207" x2="104.194" y2="40.3309" gradientUnits="userSpaceOnUse">
<stop stop-color="white"/>
<stop offset="1" stop-color="white" stop-opacity="0.2"/>
</linearGradient>
<linearGradient id="paint3_linear_731_11243" x1="53.0291" y1="83.8214" x2="94.3566" y2="86.7859" gradientUnits="userSpaceOnUse">
<stop stop-color="white"/>
<stop offset="1" stop-color="white" stop-opacity="0.2"/>
</linearGradient>
<linearGradient id="paint4_linear_731_11243" x1="53.0291" y1="83.8214" x2="94.3566" y2="86.7859" gradientUnits="userSpaceOnUse">
<stop stop-color="white"/>
<stop offset="1" stop-color="white" stop-opacity="0.2"/>
</linearGradient>
<linearGradient id="paint5_linear_731_11243" x1="58.6014" y1="38.1498" x2="81.2356" y2="38.8878" gradientUnits="userSpaceOnUse">
<stop stop-color="white"/>
<stop offset="1" stop-color="white" stop-opacity="0.2"/>
</linearGradient>
<linearGradient id="paint6_linear_731_11243" x1="58.6014" y1="38.1498" x2="81.2356" y2="38.8878" gradientUnits="userSpaceOnUse">
<stop stop-color="white"/>
<stop offset="1" stop-color="white" stop-opacity="0.2"/>
</linearGradient>
</defs>
</svg>
