<svg width="78" height="20" viewBox="0 0 78 20" fill="none" xmlns="http://www.w3.org/2000/svg">
<path d="M0.46814 15.0162V0.172729H9.8469V2.97202H3.38341V12.2169H9.98565V15.0162H0.46814ZM1.85562 8.80403V6.08976H8.89437V8.80403H1.85562Z" fill="white"/>
<path d="M11.3529 15.0162L15.5356 8.88905L17.0821 10.8614L14.6626 15.0178H11.3513L11.3529 15.0162ZM19.0261 15.0162L16.4289 11.0515L15.6353 9.86439L11.3918 3.80064H14.8029L17.3409 7.63862L18.2139 8.88905L22.3966 15.0162H19.0261ZM18.0938 9.96943L16.5863 7.99708L18.8266 3.79897H22.1378L18.0938 9.96943Z" fill="white"/>
<path d="M23.8823 19.6811V3.79897H26.598L26.6775 6.32151L26.1615 6.12978C26.2535 5.67795 26.4811 5.26114 26.8459 4.87935C27.2091 4.49755 27.6612 4.18744 28.2038 3.94569C28.7463 3.70561 29.3137 3.58557 29.9093 3.58557C30.8213 3.58557 31.6335 3.83732 32.3475 4.33749C33.0615 4.83933 33.6227 5.52457 34.0327 6.39487C34.4427 7.2635 34.647 8.26384 34.647 9.3959C34.647 10.528 34.4412 11.51 34.0327 12.3853C33.6227 13.2622 33.0615 13.9508 32.3475 14.4526C31.6335 14.9545 30.8213 15.2046 29.9093 15.2046C29.3013 15.2046 28.7229 15.0812 28.1741 14.8328C27.6254 14.586 27.1624 14.2576 26.7867 13.8474C26.4094 13.4373 26.1693 12.9988 26.0633 12.5336L26.7181 12.2369V19.6794H23.8823V19.6811ZM29.2748 12.6203C29.7908 12.6203 30.246 12.487 30.6435 12.2169C31.0395 11.9484 31.3513 11.57 31.5758 11.0831C31.8003 10.5963 31.9125 10.0328 31.9125 9.39756C31.9125 8.76235 31.8003 8.20382 31.5758 7.72199C31.3513 7.24182 31.0442 6.86669 30.6545 6.59827C30.2647 6.32984 29.8048 6.1948 29.2763 6.1948C28.7478 6.1948 28.2848 6.32484 27.8888 6.5866C27.4929 6.84835 27.1811 7.22348 26.9566 7.71031C26.7321 8.19715 26.6198 8.76068 26.6198 9.3959C26.6198 10.0311 26.7321 10.5946 26.9566 11.0815C27.1811 11.5683 27.4913 11.9468 27.8888 12.2152C28.2848 12.4836 28.7478 12.6187 29.2763 12.6187L29.2748 12.6203Z" fill="white"/>
<path d="M41.4893 15.2279C40.3528 15.2279 39.3582 14.9811 38.5054 14.486C37.6527 13.9908 36.9917 13.3122 36.5224 12.4503C36.0532 11.5883 35.8178 10.598 35.8178 9.48093C35.8178 8.60396 35.9503 7.80535 36.2137 7.0851C36.4788 6.36485 36.8482 5.73797 37.3237 5.20779C37.7992 4.67761 38.3651 4.26747 39.0183 3.97737C39.6731 3.68727 40.3824 3.54222 41.1494 3.54222C41.8634 3.54222 42.5244 3.68393 43.1324 3.9657C43.7404 4.24913 44.2658 4.64093 44.7086 5.14277C45.1513 5.64461 45.4912 6.23814 45.7297 6.92338C45.9682 7.60861 46.0727 8.3472 46.0462 9.13914L46.0259 10.0728H37.5997L37.1444 8.22883H43.7077L43.3912 8.61063V8.1438C43.3647 7.762 43.2494 7.42022 43.0436 7.11511C42.8378 6.81168 42.5774 6.57159 42.261 6.39487C41.9445 6.21814 41.5875 6.12978 41.19 6.12978C40.6085 6.12978 40.1158 6.24982 39.7136 6.4899C39.3098 6.72998 39.0027 7.08343 38.7923 7.55026C38.5802 8.01709 38.4742 8.58228 38.4742 9.24584C38.4742 9.90941 38.6099 10.5113 38.8811 11.0064C39.1524 11.5016 39.5359 11.8867 40.0316 12.1618C40.5274 12.4369 41.112 12.5753 41.787 12.5753C42.2501 12.5753 42.6725 12.4986 43.056 12.3419C43.4396 12.1869 43.8496 11.9184 44.2845 11.5366L45.633 13.5507C45.2495 13.9191 44.827 14.2259 44.364 14.4726C43.901 14.7194 43.4255 14.9078 42.936 15.0345C42.4465 15.1612 41.9648 15.2246 41.4893 15.2246V15.2279Z" fill="white"/>
<path d="M52.8495 15.2279C51.713 15.2279 50.7184 14.9811 49.8656 14.486C49.0129 13.9908 48.3519 13.3122 47.8826 12.4503C47.4134 11.5883 47.178 10.598 47.178 9.48093C47.178 8.60396 47.3105 7.80535 47.5739 7.0851C47.839 6.36485 48.2084 5.73797 48.6839 5.20779C49.1594 4.67761 49.7253 4.26747 50.3785 3.97737C51.0333 3.68727 51.7426 3.54222 52.5096 3.54222C53.2236 3.54222 53.8846 3.68393 54.4926 3.9657C55.1006 4.24913 55.626 4.64093 56.0688 5.14277C56.5115 5.64461 56.8514 6.23814 57.0899 6.92338C57.3284 7.60861 57.4329 8.3472 57.4064 9.13914L57.3861 10.0728H48.9599L48.5047 8.22883H55.0679L54.7514 8.61063V8.1438C54.7249 7.762 54.6096 7.42022 54.4038 7.11511C54.198 6.81168 53.9376 6.57159 53.6212 6.39487C53.3047 6.21814 52.9477 6.12978 52.5502 6.12978C51.9687 6.12978 51.476 6.24982 51.0738 6.4899C50.6701 6.72998 50.3629 7.08343 50.1525 7.55026C49.9404 8.01709 49.8344 8.58228 49.8344 9.24584C49.8344 9.90941 49.9701 10.5113 50.2413 11.0064C50.5126 11.5016 50.8961 11.8867 51.3919 12.1618C51.8876 12.4369 52.4722 12.5753 53.1473 12.5753C53.6103 12.5753 54.0327 12.4986 54.4163 12.3419C54.7998 12.1869 55.2098 11.9184 55.6447 11.5366L56.9932 13.5507C56.6097 13.9191 56.1872 14.2259 55.7242 14.4726C55.2612 14.7194 54.7857 14.9078 54.2962 15.0345C53.8067 15.1612 53.325 15.2246 52.8495 15.2246V15.2279Z" fill="white"/>
<path d="M59.2335 15.0162V3.79897H61.9492L62.049 7.40354L61.5735 6.66162C61.7325 6.08143 61.9897 5.55624 62.3467 5.08108C62.7037 4.60758 63.1231 4.23579 63.6064 3.96737C64.0881 3.69894 64.5948 3.56389 65.1233 3.56389C65.3477 3.56389 65.566 3.58557 65.778 3.62725C65.9885 3.66893 66.1678 3.71895 66.3127 3.77564L65.5598 7.08344C65.4148 6.99841 65.2261 6.92505 64.9954 6.86169C64.7647 6.79834 64.5293 6.76666 64.2923 6.76666C63.9758 6.76666 63.6812 6.82668 63.4099 6.94672C63.1387 7.06676 62.9048 7.23682 62.7068 7.45523C62.5089 7.6753 62.353 7.93206 62.2407 8.22883C62.1285 8.5256 62.0723 8.85071 62.0723 9.20416V15.0145H59.2366L59.2335 15.0162Z" fill="white"/>
<path d="M71.1502 15.2279C70.2772 15.2279 69.4915 14.9728 68.7915 14.4643C68.09 13.9558 67.535 13.2622 67.1265 12.3869C66.7165 11.51 66.5123 10.5063 66.5123 9.37589C66.5123 8.2455 66.7212 7.24182 67.1374 6.36486C67.5537 5.48789 68.1196 4.80265 68.832 4.30748C69.546 3.81231 70.3583 3.56556 71.2703 3.56556C71.7863 3.56556 72.2587 3.64725 72.6874 3.80898C73.1161 3.97237 73.4934 4.19411 73.8176 4.47754C74.1419 4.76097 74.4147 5.08608 74.6408 5.45288C74.8652 5.82134 75.0243 6.21647 75.1162 6.63995L74.5207 6.53324V3.7973H77.3159V15.0145H74.4802V12.3219L75.1147 12.2585C75.0087 12.6537 74.8372 13.0288 74.5987 13.3823C74.3601 13.7357 74.0671 14.0508 73.7163 14.3259C73.3655 14.601 72.9727 14.8211 72.5361 14.9828C72.0996 15.1445 71.6366 15.2262 71.1487 15.2262L71.1502 15.2279ZM71.9235 12.6203C72.452 12.6203 72.915 12.487 73.311 12.2169C73.7069 11.9484 74.014 11.57 74.2323 11.0831C74.4506 10.5963 74.5597 10.0261 74.5597 9.37589C74.5597 8.72567 74.4506 8.18214 74.2323 7.70031C74.014 7.22015 73.7069 6.84169 73.311 6.56659C72.915 6.2915 72.452 6.15311 71.9235 6.15311C71.395 6.15311 70.9554 6.2915 70.5656 6.56659C70.1759 6.84169 69.8688 7.22015 69.6443 7.70031C69.4198 8.18048 69.3075 8.739 69.3075 9.37589C69.3075 10.0128 69.4198 10.5946 69.6443 11.0831C69.8688 11.57 70.1759 11.9484 70.5656 12.2169C70.9554 12.4853 71.409 12.6203 71.9235 12.6203Z" fill="white"/>
</svg>
