<svg width="25" height="24" viewBox="0 0 25 24" fill="none" xmlns="http://www.w3.org/2000/svg">
<path d="M10.6805 3.55741C11.5415 2.00712 13.771 2.00712 14.632 3.55741V3.55741C15.1423 4.47615 16.2185 4.92193 17.229 4.6331V4.6331C18.934 4.14572 20.5105 5.72222 20.0232 7.42728V7.42728C19.7343 8.43774 20.1801 9.51395 21.0988 10.0242V10.0242C22.6491 10.8852 22.6491 13.1148 21.0988 13.9758V13.9758C20.1801 14.4861 19.7343 15.5623 20.0232 16.5727V16.5727C20.5105 18.2778 18.934 19.8543 17.229 19.3669V19.3669C16.2185 19.0781 15.1423 19.5239 14.632 20.4426V20.4426C13.771 21.9929 11.5415 21.9929 10.6805 20.4426V20.4426C10.1702 19.5239 9.09399 19.0781 8.08353 19.3669V19.3669C6.37847 19.8543 4.80197 18.2778 5.28935 16.5727V16.5727C5.57818 15.5623 5.1324 14.4861 4.21366 13.9758V13.9758C2.66337 13.1148 2.66337 10.8852 4.21366 10.0242V10.0242C5.1324 9.51395 5.57818 8.43774 5.28935 7.42728V7.42728C4.80197 5.72222 6.37847 4.14572 8.08353 4.6331V4.6331C9.09399 4.92193 10.1702 4.47615 10.6805 3.55741V3.55741Z" fill="#C4DF2B"/>
<path d="M16.6561 8.57129L11.6275 14.857L9.3418 11.9999" stroke="#18191D" stroke-width="2" stroke-linecap="round" stroke-linejoin="round"/>
</svg>
